<?xml version="1.0" standalone="no"?><!DOCTYPE svg PUBLIC "-//W3C//DTD SVG 1.1//EN" "http://www.w3.org/Graphics/SVG/1.1/DTD/svg11.dtd"><svg t="1767066720875" class="icon" viewBox="0 0 1024 1024" version="1.1" xmlns="http://www.w3.org/2000/svg" p-id="8243" xmlns:xlink="http://www.w3.org/1999/xlink" width="200" height="200"><path d="M617.91 937.52h-408.2c-80.23 0-145.5-64.67-145.5-144.15V242.38c0-79.49 65.27-144.15 145.5-144.15h408.2c80.23 0 145.5 64.67 145.5 144.15v550.99c0 79.49-65.27 144.15-145.5 144.15z m-408.2-785.88c-50.5 0-91.58 40.7-91.58 90.74v550.99c0 50.03 41.08 90.74 91.58 90.74h408.2c50.5 0 91.58-40.7 91.58-90.74V242.38c0-50.03-41.08-90.74-91.58-90.74h-408.2zM808.13 931.93v-53.42c50.49 0 91.58-40.7 91.58-90.73V515.93c0-50.03-41.08-90.74-91.58-90.74v-53.42c80.22 0 145.49 64.67 145.49 144.15v271.85c0 79.5-65.27 144.16-145.49 144.16z" fill="#ffffff" p-id="8244"></path><path d="M781.17 905.22a26.96 26.71 0 1 0 53.92 0 26.96 26.71 0 1 0-53.92 0Z" fill="#ffffff" p-id="8245"></path><path d="M781.17 398.48a26.96 26.71 0 1 0 53.92 0 26.96 26.71 0 1 0-53.92 0Z" fill="#ffffff" p-id="8246"></path><path d="M590.75 385.13H209.91c-1.1 0-2-0.9-2-2v-49.42c0-1.1 0.9-2 2-2h380.84c1.1 0 2 0.9 2 2v49.42c0 1.11-0.89 2-2 2zM590.75 561.43H209.91c-1.1 0-2-0.9-2-2v-49.42c0-1.1 0.9-2 2-2h380.84c1.1 0 2 0.9 2 2v49.42a2 2 0 0 1-2 2zM590.75 743.59H209.91c-1.1 0-2-0.9-2-2v-49.42c0-1.1 0.9-2 2-2h380.84c1.1 0 2 0.9 2 2v49.42c0 1.11-0.89 2-2 2z" fill="#ffffff" p-id="8247"></path></svg>