<?xml version="1.0" standalone="no"?><!DOCTYPE svg PUBLIC "-//W3C//DTD SVG 1.1//EN" "http://www.w3.org/Graphics/SVG/1.1/DTD/svg11.dtd"><svg t="1767066705265" class="icon" viewBox="0 0 1024 1024" version="1.1" xmlns="http://www.w3.org/2000/svg" p-id="7198" xmlns:xlink="http://www.w3.org/1999/xlink" width="200" height="200"><path d="M821.333333 149.333333h-138.666666v-32c0-17.706667-14.293333-32-32-32H373.333333c-17.706667 0-32 14.293333-32 32v32H202.666667c-17.706667 0-32 14.293333-32 32v704c0 17.706667 14.293333 32 32 32h618.666666c17.706667 0 32-14.293333 32-32v-704c0-17.706667-14.293333-32-32-32z m-416 0h213.333334v64H405.333333v-64z m384 704H234.666667v-640h106.666666v32c0 17.706667 14.293333 32 32 32h277.333334c17.706667 0 32-14.293333 32-32v-32h106.666666v640z" p-id="7199" fill="#ffffff"></path><path d="M673.706667 480.853333l-184.853334 192c-0.746667 0.853333-1.6 1.6-2.453333 2.24-0.853333 0.746667-1.706667 1.386667-2.666667 2.026667-0.746667 0.533333-1.6 1.066667-2.453333 1.493333-2.88 1.706667-6.08 2.773333-9.28 3.413334-0.853333 0.213333-1.706667 0.32-2.56 0.426666a31.850667 31.850667 0 0 1-15.36-2.026666c-0.96-0.32-1.92-0.746667-2.773333-1.28-2.773333-1.386667-5.333333-3.2-7.68-5.44l-0.853334-0.853334-92.48-96a32 32 0 0 1 0.853334-45.226666 32 32 0 0 1 45.226666 0.853333l69.44 72.106667L627.626667 436.48a32 32 0 0 1 45.226666-0.853333 32 32 0 0 1 0.853334 45.226666z" p-id="7200" fill="#ffffff"></path></svg>